<svg width="1649" height="799" viewBox="0 0 1649 799" fill="none" xmlns="http://www.w3.org/2000/svg">
<path d="M194.71 795.37V497.89C194.71 461.001 209.364 425.623 235.448 399.539C261.533 373.454 296.911 358.8 333.8 358.8H444.48" stroke="#111111" stroke-width="6" stroke-linecap="round" stroke-linejoin="round"/>
<path d="M918.17 588.93C912.17 586.21 905.813 583.633 899.1 581.2C876.43 549.45 840 461.49 801.92 408.3C801.48 381.66 804.92 332.18 758.3 301.85" stroke="#111111" stroke-width="6" stroke-linecap="round" stroke-linejoin="round"/>
<path d="M582.6 279.12C449.46 301.23 429.2 353.91 452.6 402.31C410.85 424.78 342.07 472.93 282 567.1C188 714.31 278.76 795.64 332.16 795.64C385.56 795.64 994.08 791.16 994.08 791.16C994.08 791.16 1023.08 729.67 1000.53 669.71" stroke="#111111" stroke-width="6" stroke-linecap="round" stroke-linejoin="round"/>
<path d="M569.71 347.37L556.45 357C556.45 357 644.75 448.94 684.34 636.1C688.84 657.36 692.02 673.51 694.26 685.8C694.17 685.91 721.06 688.65 720.4 688.38C712.63 636.91 701.77 543.08 717.4 497.7C739.52 433.29 740.1 396.03 725.1 348.96C721.5 337.66 716.47 422.05 689.87 452.12C622.75 377.52 569.71 347.37 569.71 347.37Z" fill="#111111"/>
<path d="M593.31 309.49L592.36 325.77L572 349.19C572 349.19 632.29 386.46 690 452.19C690 452.19 714.37 426.71 722.65 348.62" stroke="#111111" stroke-width="6" stroke-linecap="round" stroke-linejoin="round"/>
<path d="M615.35 486.25C615.35 486.25 648.53 555.31 653.09 602.25" stroke="#111111" stroke-width="8" stroke-linecap="round" stroke-linejoin="round"/>
<path d="M741.35 483.78C741.35 483.78 726.1 549.87 731.11 596.72" stroke="#111111" stroke-width="8" stroke-linecap="round" stroke-linejoin="round"/>
<path d="M831.08 743C841.99 753.3 848.02 759.77 848.76 762.7C850.54 769.7 836.28 773.7 824.5 762.8L789.82 732.8C789.82 732.8 825.16 769.29 827.89 774.87C830.62 780.45 816.83 790.33 796.41 766.87C775.99 743.41 772.74 743.19 772.74 743.19C772.74 743.19 796.08 772.72 799.19 779.41C802.3 786.1 782.61 792.41 764.56 761.41L656.64 757.11L663 679.33C663 679.33 716.78 687.51 753.69 695.2L762.76 696.98C768.143 697.434 773.439 698.622 778.5 700.51C791.5 705.18 849.62 732.23 854.05 737.76C858.48 743.29 852.99 753.92 838.79 746.92C824.59 739.92 795.18 724.15 795.18 724.15" stroke="#111111" stroke-width="6" stroke-linecap="round" stroke-linejoin="round"/>
<path d="M538 794.47C581 794.84 631 786.81 641.06 785.47C660.92 782.86 655.48 767.9 670.06 764.22C684.64 760.54 689.64 756.76 689.64 756.76C675.05 725.76 698.91 680.12 698.91 680.12C698.91 680.12 694.33 678.25 680.05 673.47C665.77 668.69 672.34 654.19 652.74 650.07C633.14 645.95 472.66 632.24 472.66 632.24" stroke="#111111" stroke-width="6" stroke-linecap="round" stroke-linejoin="round"/>
<path d="M672.21 766.53C687.99 762.67 693.37 758.69 693.37 758.69C677.5 725.78 703.19 677.54 703.19 677.54C703.19 677.54 698.19 675.54 682.77 670.44C676.55 668.39 673.97 664.67 671.77 660.68C634.87 693.56 646.53 760.55 652.36 785.04C660.75 779.28 660.24 769.46 672.21 766.53Z" fill="#111111"/>
<path d="M491.08 586.09C491.08 586.09 523.08 592.4 527.21 635.65" stroke="#111111" stroke-width="6" stroke-linecap="round" stroke-linejoin="round"/>
<path d="M898.47 698.52C898.47 698.52 892.47 726.01 883.75 736.45C875.03 746.89 893.46 756.21 902.88 749.76C904.183 748.925 905.435 748.014 906.63 747.03" stroke="#111111" stroke-width="6" stroke-linecap="round" stroke-linejoin="round"/>
<path d="M932.63 657.18C916.24 658.06 902.1 666.07 901.36 688.32C901.36 688.32 906.55 739.48 907.55 754.32C908.55 769.16 923.44 766.09 926.38 759.93" stroke="#111111" stroke-width="6" stroke-linecap="round" stroke-linejoin="round"/>
<path d="M924.65 708.26C924.65 708.26 925.46 739.48 926.45 754.26C927.44 769.04 941.65 770.17 944.45 762.4C947.25 754.63 944.69 708.24 944.69 708.24C944.69 708.24 945.49 739.46 946.49 754.24C947.49 769.02 960.85 768.61 963.79 762.45C965.87 758.1 963.79 708.22 963.79 708.22C963.79 708.22 964.6 739.44 965.6 754.22C966.6 769 979.95 768.59 982.9 762.43C985.85 756.27 994.15 684.62 983.8 675.17C982.12 670 968.13 662.39 952.14 658.9" stroke="#111111" stroke-width="6" stroke-linecap="round" stroke-linejoin="round"/>
<path d="M956.6 660.05C970.66 663.86 982.29 670.55 983.81 675.23C990.67 681.5 989.33 715.1 986.81 738.83C993.74 730.748 998.561 721.077 1000.84 710.679C1003.13 700.281 1002.8 689.479 999.896 679.237C996.989 668.996 991.593 659.633 984.189 651.984C976.784 644.335 967.602 638.637 957.46 635.4" fill="#111111"/>
<path d="M932 632.61C920.685 633.631 909.841 637.623 900.564 644.18C891.287 650.738 883.906 659.629 879.168 669.954C874.43 680.28 872.503 691.673 873.581 702.983C874.66 714.292 878.706 725.116 885.31 734.36C893.18 722.75 898.47 698.52 898.47 698.52L902.92 703.92C902.03 694.85 901.36 688.32 901.36 688.32C902.09 666.27 915.99 658.21 932.19 657.2" fill="#111111"/>
<path d="M912.53 601.21C912.53 601.21 833.45 602.54 831.68 683.56" stroke="#111111" stroke-width="6" stroke-linecap="round" stroke-linejoin="round"/>
<path d="M817.08 640.15C817.08 640.15 818.48 583.66 880.76 585.42" stroke="#111111" stroke-width="6" stroke-linecap="round" stroke-linejoin="round"/>
<path d="M798.63 404.7C798.63 405.88 798.63 407.01 798.71 408.1C788.88 461.84 780.18 455.24 757.12 497.7C756.95 498.01 756.79 498.34 756.63 498.7C788.21 486.34 813.03 470.24 827.25 442.7C827.25 442.65 808.71 416.47 798.63 404.7Z" fill="#111111"/>
<path d="M455 400.36C436.313 410.597 418.518 422.381 401.8 435.59C418.71 445.29 544.32 515.43 602.59 500.35C561.82 500.33 479.41 452.2 455 400.36Z" fill="#111111"/>
<path d="M601.62 185.87C607.35 192.87 613.87 230.68 616.19 248.19C616.19 248.19 660.6 238.64 722.03 244.61C722.03 244.61 754.82 248.94 767.94 254.3C775.39 222.94 782.08 181.79 781.2 142.52C779.9 84.11 708.79 80.52 698.38 80.25C586.65 76.87 582.29 184.48 582.29 184.48V184.88L601.62 185.87Z" stroke="#111111" stroke-width="6" stroke-linecap="round" stroke-linejoin="round"/>
<path d="M573.73 201.52C563.8 201.81 540.41 205.41 542.8 233.02C544.92 257.53 567.39 257.45 580.63 255.21" stroke="#111111" stroke-width="6" stroke-linecap="round" stroke-linejoin="round"/>
<path d="M601.62 185.87C607.35 192.87 613.87 230.68 616.19 248.19C616.19 248.19 660.6 238.64 722.03 244.61C722.03 244.61 755.39 249.02 768.28 254.44C768.28 254.44 758.66 314.44 728.06 342.7C697.46 370.96 641.11 355.79 616.32 334C591.53 312.21 588.09 302.75 584.11 281.95C580.13 261.15 572.05 184.36 572.05 184.36L601.62 185.87Z" stroke="#111111" stroke-width="6" stroke-linecap="round" stroke-linejoin="round"/>
<path d="M572.49 195.13C572.49 195.13 560.27 164.18 559.14 134.33C558.07 106.26 576.14 80.69 603.33 73.65C626.09 67.76 639.9 78.72 639.9 78.72C639.9 78.72 625.38 36.82 665.05 10.32C671.992 5.68915 679.804 2.52293 688.011 1.015C696.218 -0.492936 704.646 -0.310891 712.78 1.55C752.89 10.81 758.52 47.41 758.52 47.41C758.52 47.41 817.6 -23.29 896.74 41.41C904.74 47.94 912.13 63.15 915.17 73.01C933.63 132.74 824.47 177.29 773.29 172.29C717.09 166.81 686.66 151.23 671.62 134.2C683.23 144.75 651.89 224.22 572.49 195.13Z" fill="#111111"/>
<path d="M724.65 221.38L724.81 274.64L706.81 267.83" stroke="#111111" stroke-width="8" stroke-linecap="round" stroke-linejoin="round"/>
<path d="M750.496 223.387C751.01 218.782 749.015 214.78 746.04 214.448C743.065 214.116 740.237 217.58 739.723 222.185C739.209 226.79 741.204 230.792 744.179 231.124C747.153 231.456 749.982 227.992 750.496 223.387Z" fill="#111111"/>
<path d="M698.925 216.91C699.439 212.305 697.444 208.303 694.469 207.97C691.495 207.638 688.666 211.102 688.152 215.707C687.638 220.312 689.633 224.315 692.608 224.647C695.583 224.979 698.411 221.515 698.925 216.91Z" fill="#111111"/>
<path d="M670.64 185.83C673.747 182.649 677.652 180.36 681.945 179.202C686.239 178.045 690.765 178.061 695.05 179.25" stroke="#111111" stroke-width="8" stroke-linecap="round" stroke-linejoin="round"/>
<path d="M740.18 182.62C740.18 182.62 755.55 180.41 757.92 193.04" stroke="#111111" stroke-width="8" stroke-linecap="round" stroke-linejoin="round"/>
<path d="M680.94 285.27C680.94 285.27 685.43 300.88 699.75 296.5" stroke="#111111" stroke-width="8" stroke-linecap="round" stroke-linejoin="round"/>
<path d="M661.23 757.33H1014.44C1017.36 757.33 1020.16 758.489 1022.22 760.552C1024.28 762.615 1025.44 765.413 1025.44 768.33V795.33H649.92V768.65C649.919 767.164 650.21 765.692 650.778 764.319C651.346 762.946 652.179 761.698 653.229 760.646C654.279 759.595 655.527 758.761 656.899 758.192C658.272 757.623 659.744 757.33 661.23 757.33Z" fill="#111111"/>
<path d="M3 795.91H1645.99" stroke="#111111" stroke-width="6" stroke-linecap="round" stroke-linejoin="round"/>
<path d="M1227.4 475.2C1217.47 475.54 1213.23 477.66 1213.23 486.29C1213.23 499.07 1226.23 673.23 1226.35 674.98C1226.47 676.73 1233.91 781.13 1233.91 781.13C1234.13 784.485 1235.61 787.632 1238.06 789.935C1240.51 792.239 1243.75 793.527 1247.11 793.54L1261.57 793.04L1226.87 477.24C1226.79 476.518 1226.98 475.793 1227.4 475.2Z" fill="#111111"/>
<path d="M1301.13 578H1300.92C1297.35 577.951 1293.81 578.621 1290.5 579.969C1287.2 581.318 1284.2 583.318 1281.68 585.85C1279.53 588.063 1277.86 590.696 1276.78 593.583C1275.69 596.47 1275.21 599.55 1275.37 602.63C1276.04 616.51 1288.83 627.88 1303.88 627.99H1304.1C1307.67 628.038 1311.21 627.368 1314.52 626.019C1317.82 624.671 1320.82 622.671 1323.34 620.14C1325.49 617.926 1327.16 615.294 1328.24 612.407C1329.33 609.52 1329.81 606.44 1329.65 603.36C1329 589.51 1316.19 578.13 1301.13 578Z" fill="#111111"/>
<path d="M1394.52 776.89L1369.72 673.82C1369.72 673.82 1331.61 496.12 1328.96 483.82C1326.96 474.61 1318.11 474.99 1317.1 475.13C1316.31 475.24 1315.83 475.13 1314.95 475.13H1232.26C1232.57 475.552 1232.77 476.048 1232.83 476.57L1267.6 793H1381.6C1383.58 792.984 1385.53 792.529 1387.31 791.667C1389.08 790.804 1390.65 789.556 1391.89 788.014C1393.12 786.471 1394 784.673 1394.46 782.749C1394.91 780.825 1394.93 778.823 1394.52 776.89ZM1327.67 624.32C1324.59 627.432 1320.92 629.892 1316.87 631.555C1312.82 633.218 1308.48 634.049 1304.1 634H1303.84C1285.66 633.87 1270.2 619.93 1269.37 602.93C1269.17 599.033 1269.78 595.137 1271.16 591.486C1272.53 587.835 1274.65 584.507 1277.37 581.71C1280.45 578.593 1284.12 576.128 1288.17 574.462C1292.22 572.795 1296.56 571.961 1300.94 572.01H1301.2C1319.38 572.14 1334.84 586.08 1335.66 603.08C1335.86 606.979 1335.25 610.878 1333.88 614.532C1332.5 618.187 1330.39 621.519 1327.67 624.32Z" fill="#111111"/>
<path d="M1057.91 757.33H1373.91V793H1046.6V768.6C1046.61 765.607 1047.81 762.741 1049.93 760.628C1052.05 758.516 1054.92 757.33 1057.91 757.33Z" fill="#111111"/>
<path d="M1526.29 272.58C1526.29 263.15 1518.88 255.58 1509.85 255.58L971.66 257.24C971.32 257.24 970.99 257.24 970.66 257.3L927.84 257.43C918.84 257.43 911.53 265.12 911.58 274.54L913.58 669.22C913.58 678.64 920.98 686.22 930.01 686.22L969.1 685.32C970.631 685.799 972.226 686.041 973.83 686.04L1220.74 680.13C1220.62 678.94 1220.49 677.41 1220.34 675.44C1219.8 668.26 1207.2 499.3 1207.2 486.3C1207.2 469.15 1221.46 469.15 1230.9 469.15H1317.66C1318.06 469.146 1318.47 469.19 1318.86 469.28C1324.47 469.47 1332.66 472.58 1334.8 482.54C1337.35 494.43 1373.74 664.34 1376.33 676.41L1512 673.16C1521 673.16 1528.31 665.47 1528.26 656.05L1526.29 272.58ZM962.84 681.82C962.758 682.557 962.407 683.238 961.852 683.731C961.298 684.224 960.581 684.494 959.84 684.49H959.5C946.68 683.05 939.57 673.49 939.5 657.49C939.5 648.43 937.66 299.8 937.56 281.12C937.47 264.02 951.66 259.12 959.17 258.87C959.965 258.845 960.739 259.137 961.319 259.681C961.899 260.226 962.24 260.979 962.265 261.775C962.29 262.571 961.998 263.344 961.453 263.924C960.909 264.505 960.155 264.845 959.36 264.87C957.73 264.93 943.48 265.87 943.56 281.1C943.66 299.78 945.45 648.41 945.5 657.47C945.57 670.54 950.37 677.47 960.18 678.47C960.576 678.512 960.959 678.633 961.308 678.824C961.657 679.016 961.964 679.276 962.212 679.588C962.459 679.899 962.642 680.257 962.75 680.641C962.858 681.024 962.889 681.425 962.84 681.82Z" fill="#111111"/>
<path d="M1212.94 109.89H1211.65C1208.89 109.89 1206.65 112.129 1206.65 114.89V120.35C1206.65 123.111 1208.89 125.35 1211.65 125.35H1212.94C1215.7 125.35 1217.94 123.111 1217.94 120.35V114.89C1217.94 112.129 1215.7 109.89 1212.94 109.89Z" fill="#6D6D6D"/>
<path d="M1197.32 109.89H1129.7C1126.94 109.89 1124.7 112.129 1124.7 114.89V120.35C1124.7 123.111 1126.94 125.35 1129.7 125.35H1197.32C1200.08 125.35 1202.32 123.111 1202.32 120.35V114.89C1202.32 112.129 1200.08 109.89 1197.32 109.89Z" fill="#111111"/>
<path d="M1204.34 181.71H1129.7C1126.94 181.71 1124.7 183.949 1124.7 186.71V192.17C1124.7 194.931 1126.94 197.17 1129.7 197.17H1204.34C1207.1 197.17 1209.34 194.931 1209.34 192.17V186.71C1209.34 183.949 1207.1 181.71 1204.34 181.71Z" fill="#111111"/>
<path d="M1272.38 157.8H1151.1C1148.34 157.8 1146.1 160.039 1146.1 162.8V168.26C1146.1 171.021 1148.34 173.26 1151.1 173.26H1272.38C1275.14 173.26 1277.38 171.021 1277.38 168.26V162.8C1277.38 160.039 1275.14 157.8 1272.38 157.8Z" fill="#6D6D6D"/>
<path d="M1350.63 157.8H1289.72C1286.96 157.8 1284.72 160.039 1284.72 162.8V168.26C1284.72 171.021 1286.96 173.26 1289.72 173.26H1350.63C1353.39 173.26 1355.63 171.021 1355.63 168.26V162.8C1355.63 160.039 1353.39 157.8 1350.63 157.8Z" fill="#6D6D6D"/>
<path d="M1374.63 133.89H1373.34C1370.58 133.89 1368.34 136.129 1368.34 138.89V144.35C1368.34 147.111 1370.58 149.35 1373.34 149.35H1374.63C1377.39 149.35 1379.63 147.111 1379.63 144.35V138.89C1379.63 136.129 1377.39 133.89 1374.63 133.89Z" fill="#111111"/>
<path d="M1255.45 133.85H1129.7C1126.94 133.85 1124.7 136.089 1124.7 138.85V144.31C1124.7 147.071 1126.94 149.31 1129.7 149.31H1255.45C1258.21 149.31 1260.45 147.071 1260.45 144.31V138.85C1260.45 136.089 1258.21 133.85 1255.45 133.85Z" fill="#111111"/>
<path d="M1295.54 109.89H1227.92C1225.16 109.89 1222.92 112.129 1222.92 114.89V120.35C1222.92 123.111 1225.16 125.35 1227.92 125.35H1295.54C1298.3 125.35 1300.54 123.111 1300.54 120.35V114.89C1300.54 112.129 1298.3 109.89 1295.54 109.89Z" fill="#111111"/>
<path d="M1357.27 133.8H1271.52C1268.76 133.8 1266.52 136.039 1266.52 138.8V144.36C1266.52 147.121 1268.76 149.36 1271.52 149.36H1357.27C1360.03 149.36 1362.27 147.121 1362.27 144.36V138.8C1362.27 136.039 1360.03 133.8 1357.27 133.8Z" fill="#6D6D6D"/>
<path d="M329.83 734.76C345.918 734.76 358.96 721.718 358.96 705.63C358.96 689.542 345.918 676.5 329.83 676.5C313.742 676.5 300.7 689.542 300.7 705.63C300.7 721.718 313.742 734.76 329.83 734.76Z" stroke="#111111" stroke-width="6" stroke-linecap="round" stroke-linejoin="round"/>
<path d="M337.4 666.08V763.39C337.4 771.347 340.561 778.977 346.187 784.603C351.813 790.229 359.444 793.39 367.4 793.39H429C436.957 793.39 444.588 790.229 450.214 784.603C455.84 778.977 459 771.347 459 763.39V666.08H337.4ZM386.59 735.15C386.932 735.346 387.216 735.629 387.415 735.969C387.613 736.31 387.718 736.696 387.72 737.09C387.718 737.675 387.484 738.236 387.07 738.65C386.656 739.064 386.096 739.297 385.51 739.3C385.122 739.307 384.739 739.211 384.4 739.02L362.4 725.8C362.036 725.607 361.73 725.32 361.515 724.968C361.301 724.616 361.185 724.212 361.18 723.8C361.187 723.388 361.304 722.986 361.518 722.634C361.733 722.282 362.037 721.994 362.4 721.8L384.4 708.58C384.741 708.397 385.123 708.304 385.51 708.31C385.801 708.304 386.09 708.358 386.359 708.47C386.628 708.582 386.87 708.749 387.07 708.96C387.279 709.162 387.445 709.405 387.557 709.673C387.669 709.941 387.724 710.229 387.72 710.52C387.719 710.913 387.613 711.298 387.415 711.637C387.216 711.976 386.932 712.256 386.59 712.45L367.67 723.79L386.59 735.15ZM414.08 702.63L396.38 746.88C396.265 747.107 396.113 747.313 395.93 747.49C395.728 747.702 395.484 747.869 395.214 747.983C394.944 748.096 394.653 748.153 394.36 748.15C394.068 748.153 393.779 748.097 393.509 747.985C393.239 747.873 392.995 747.708 392.79 747.5C392.581 747.298 392.416 747.056 392.304 746.787C392.192 746.519 392.137 746.231 392.14 745.94C392.14 745.616 392.208 745.296 392.34 745L410 700.75C410.121 700.512 410.28 700.296 410.47 700.11C410.783 699.809 411.177 699.606 411.603 699.527C412.03 699.447 412.47 699.494 412.871 699.662C413.271 699.83 413.613 700.112 413.854 700.472C414.096 700.833 414.227 701.256 414.23 701.69C414.241 702.01 414.19 702.329 414.08 702.63ZM444 725.8L422 739C421.575 739.235 421.085 739.326 420.604 739.259C420.123 739.192 419.676 738.972 419.33 738.63C419.121 738.428 418.956 738.186 418.844 737.917C418.732 737.649 418.677 737.361 418.68 737.07C418.682 736.675 418.789 736.287 418.989 735.947C419.189 735.606 419.476 735.324 419.82 735.13L438.73 723.79L419.82 712.45C419.476 712.258 419.189 711.979 418.989 711.64C418.789 711.3 418.682 710.914 418.68 710.52C418.683 709.933 418.918 709.371 419.334 708.957C419.75 708.543 420.313 708.31 420.9 708.31C421.284 708.306 421.662 708.399 422 708.58L444 721.8C444.362 721.995 444.666 722.283 444.878 722.635C445.091 722.987 445.206 723.389 445.21 723.8C445.209 724.212 445.096 724.615 444.883 724.968C444.669 725.32 444.365 725.608 444 725.8Z" fill="#111111"/>
</svg>
